<?xml version="1.0" encoding="utf-8"?>
<!-- Generator: Adobe Illustrator 22.1.0, SVG Export Plug-In . SVG Version: 6.00 Build 0)  -->
<svg version="1.1" id="Layer_1" xmlns="http://www.w3.org/2000/svg" xmlns:xlink="http://www.w3.org/1999/xlink" x="0px" y="0px"
	 viewBox="0 0 560 200" style="enable-background:new 0 0 560 200;" xml:space="preserve">
<style type="text/css">
	.st0{fill:#F26A21;}
	.st1{fill:#2B3990;}
</style>
<g>
	<g>
		<path class="st0" d="M89.3,77.2c0,3.1-2.2,5.1-5.7,5.1c-4.6,0-7-3.1-7.9-5.8c-1.3-3.9-3.4-5.2-6.4-5.2s-7.2,4.3-7.2,11.1
			c0,6.9-0.2,11.8,3.5,18.6c2.7,4.9,6.8,6.3,11.7,6.3c5,0,7.4-1,10.9-3.5c0.5-0.3,0.9-0.5,1.2-0.1l1.5,1.5c0.3,0.4,0.2,0.9-0.1,1.4
			c-2.1,3.6-10.6,8.9-20.7,8.9c-8.2,0-13.7-2.3-17.2-6.7c-4.3-5.2-5.6-9.5-5.6-15.1c0-7.4,2.4-15.4,8.2-20.8
			c4.9-4.5,10.3-6.4,16.2-6.4C86.2,66.6,89.3,73.8,89.3,77.2z"/>
		<path class="st0" d="M95.4,107.6c-4.2-4.6-5.8-10.4-5.8-17.3c0-4.9,2.7-13,9.4-18.1c5.6-4.4,11.1-5.6,16.3-5.6
			c7.5,0,12.7,2.3,17.6,6.9c5.4,4.8,7.5,10.7,7.5,17.4c0,6.3-2.7,12.5-7,17c-5.2,5.5-11.6,7.6-19,7.6
			C106.5,115.6,101,113.9,95.4,107.6z M123.9,90.1c0-12.7-4.4-18.9-9.2-18.9c-2.7,0-4.5,0.8-5.9,3c-2.2,3.4-3.6,8.1-3.6,16.9
			c0,6.3,0.5,10.5,2.7,15.2c1.4,2.9,3.2,4.7,7.2,4.7C121.1,111,123.9,102.1,123.9,90.1z"/>
		<path class="st0" d="M158.5,92.2c0,4.4,0,11.5,0.3,14.6c0.1,1.9,0.4,3.4,2.7,3.4h3.7c1,0,1.2,0.3,1.2,1v2.1c0,0.7-0.2,1.1-0.7,1.1
			c-0.8,0-5.6-0.3-14.2-0.3c-9.2,0-13.6,0.3-14.5,0.3c-0.5,0-0.8-0.4-0.8-1.3v-1.9c0-0.8,0.2-1,1.4-1h3.3c1.2,0,3-0.8,3-4.7V70.7
			c0-7.8,0-16.6-0.2-19.4c-0.2-3.7-2.5-5.2-6-6.3l-2-0.7c-0.8-0.3-0.9-0.7-0.9-1.2v-1.6c0-0.3,0.2-0.8,1-0.9
			c4.9-1,16.3-4.7,19.5-6.3c1.2-0.5,1.9-0.8,2.4-0.8c0.7,0,1.1,0.5,1,2c-0.1,6-0.2,28.7-0.2,36.3V92.2z"/>
		<path class="st0" d="M182.5,92.2c0,4.4,0,11.5,0.3,14.6c0.1,1.9,0.4,3.4,2.7,3.4h3.7c1,0,1.2,0.3,1.2,1v2.1c0,0.7-0.2,1.1-0.7,1.1
			c-0.8,0-5.6-0.3-14.2-0.3c-9.2,0-13.5,0.3-14.5,0.3c-0.5,0-0.8-0.4-0.8-1.3v-1.9c0-0.8,0.2-1,1.4-1h3.3c1.2,0,3-0.8,3-4.7V70.7
			c0-7.8,0-16.6-0.2-19.4c-0.2-3.7-2.5-5.2-6-6.3l-2-0.7c-0.8-0.3-0.9-0.7-0.9-1.2v-1.6c0-0.3,0.2-0.8,1-0.9
			c4.9-1,16.3-4.7,19.5-6.3c1.2-0.5,1.9-0.8,2.4-0.8c0.7,0,1.1,0.5,1,2c-0.1,6-0.2,28.7-0.2,36.3V92.2z"/>
		<path class="st0" d="M200.6,86.8v3c0,11.4,6.4,16.9,14.4,16.9c5.4,0,9.7-2.5,11.9-6c0.2-0.5,0.7-0.7,1.1-0.3l1.9,1
			c0.4,0.2,0.8,0.8-0.2,2.6c-2,4-9.1,11.6-19.3,11.6c-7,0-12.8-1.2-16.4-5.1c-5.6-6-7.4-10.3-7.5-18.8c0-3.1,0-8.9,4.9-16.1
			c3.9-5.8,10.6-9,19-9c17.7,0,18.7,16.9,18.7,18.7c0,1.4-1,1.5-3.4,1.5H200.6z M211.2,82.7c2.4,0,3.5-0.5,3.5-2.2
			c0-4.8-2-9.5-5.4-9.5c-5.1,0-7.9,4-8.6,11.7H211.2z"/>
		<path class="st0" d="M233,140.4c-4-2.3-5.4-5.1-5.4-8.5c0-5.5,6.1-9.4,11.3-11.5v-0.5c-5-1.5-7.5-4.9-7.5-8.7
			c0-6.3,6.1-9.8,9.7-11.6v-0.3c-4.7-2.7-9.6-7.3-9.6-16.6c0-7.1,5.7-16,21.2-16c9.6,0,14.4,5,15.4,6.1c2.5-2.1,6.6-3.8,9.6-3.8
			c3.9,0,6,2.2,6,5.7c0,2.5-2.3,4.7-4.8,4.7c-1.9,0-2.7-0.8-3.4-1.9c-0.5-0.9-1.9-1.6-3.1-1.6c-0.5,0-1.5,0.4-2.1,1
			c0.4,0.8,1.3,3.2,1.3,7.1c0,4.2-1.2,8.2-4.9,11.8c-4.2,3.9-10.4,5.2-14.8,5.2c-2.2,0-3.7,0-6.4-0.3c-1.4,0.9-4,2.8-4,5
			c0,3.8,3.2,4.2,15,3.8c7.4-0.2,13,0.2,18.4,4.4c3.9,3.2,5.4,7,5.4,11c0,4.6-2.1,8.5-6.3,12.1c-4,3.3-12.3,7-23.4,6.8
			C245.3,143.7,237.3,142.9,233,140.4z M268.5,130.2c0-6-4.3-9.3-14.2-8.9l-9.5,0.4c-3.2,0.8-5.5,4.2-5.5,7.4s1.7,5.9,3.8,7.4
			c3.1,2.2,6.1,2.8,11,2.8C261.4,139.5,268.5,135.7,268.5,130.2z M246.8,74.2c-1.5,2.2-2.2,7.2-2.2,12.1c0,3.2,1,6.7,2.4,8.3
			c1.2,1.5,2.8,2.2,5,2.2c4.8,0,6.4-7.3,6.4-15.7c0-4-0.4-6.3-1-7.3c-1-1.9-2.3-3.1-5.4-3.1C249.7,70.7,248.3,72.1,246.8,74.2z"/>
		<path class="st0" d="M293.2,86.8v3c0,11.4,6.4,16.9,14.4,16.9c5.4,0,9.7-2.5,11.9-6c0.2-0.5,0.7-0.7,1.1-0.3l1.9,1
			c0.4,0.2,0.8,0.8-0.2,2.6c-2,4-9.1,11.6-19.3,11.6c-7,0-12.8-1.2-16.4-5.1c-5.6-6-7.4-10.3-7.5-18.8c0-3.1,0-8.9,4.9-16.1
			c3.9-5.8,10.6-9,19-9c17.7,0,18.7,16.9,18.7,18.7c0,1.4-1,1.5-3.4,1.5H293.2z M303.8,82.7c2.4,0,3.5-0.5,3.5-2.2
			c0-4.8-2-9.5-5.4-9.5c-5.1,0-7.9,4-8.6,11.7H303.8z"/>
	</g>
</g>
<g>
	<g>
		<path class="st1" d="M429.9,89.1c6.7-1.3,13.5-9.3,20-3.2c-2.8,6.3-11.8,7.6-16.4,12c-2.9,3.6,1.5,13.2-1,17.1
			c-13.1-2.3-2.5-24.4-9.7-32.3c0.9-0.4,1.6-1,1.9-1.9C428.5,81.5,428.6,85.9,429.9,89.1z"/>
	</g>
	<g>
		<path class="st1" d="M416.3,84.6c2.3,4.3,5.2,8,4.9,14.8c-5.5,11.8-26.4,12.9-32.3,13.1c-1.2,17.6,3.3,39.6,1.5,57.9
			c-7.8,0-7.2-8.2-7-16.2c-1.7-13-1.2-26.9-2.3-38.6c-0.2-0.9-0.2-2.4-0.2-3.9c0-1.4-5.9,0-6-4.7c0.1-3.6,6-3.3,5.7-4.2
			c1.2-3.7-2.2-11.2-0.1-21.7C391.1,84,407.2,78,416.3,84.6z M388.2,93.8c-1.1,1.6-1.1,6.8,0,8.4c10.2-0.7,17.7-3.2,24.6-8.4
			C406.3,88.5,396.5,94.3,388.2,93.8z"/>
	</g>
	<g>
		<path class="st1" d="M493.3,81c2.5,0.8,2.5,4.1,2.9,7c-2,2.6-4.6,4.7-8.2,5.8c4.9,3.1,12.3,6.7,9.3,15.8
			c-3.5,2.7-8.4,4.1-13.4,5.3c-1.8-1.5-2.9-3.8-3.5-6.4c0.1-4,5.5-2.7,7.6-4.7c-5.4-2.6-11.8-4.1-13.4-10.5
			C478.6,87,485.9,83.9,493.3,81z"/>
	</g>
	<g>
		<path class="st1" d="M519.3,80c5.4,7.5-4.7,10.8-9.5,13.4c8.7,2.4,19.5,9.4,12.3,19.6c-5.1,1.9-14.5,2.9-17.9-1.1
			c1.2-1,1-3.5,2.2-4.5c4.2,0.5,6.9-0.5,8.4-2.8c-5.5-3.6-16.3-1.9-16.2-11.2C502.1,85.6,511.3,83.4,519.3,80z"/>
	</g>
	<g>
		<path class="st1" d="M471.7,80.8c10.5,12.8-9.5,14.2-14.6,21c1.4,6.8,11.6,1,15.9,4.4c-1.4,5.4-6.3,7.2-11.4,8.9
			c-11.3-2.5-15.1-16.2-8.9-26.1C460.4,87.7,463,81.2,471.7,80.8z"/>
	</g>
	<g>
		<path class="st1" d="M354.9,107.5c0,0,30.5,34.8,48.5,39.7s14.4,1.2,14.3-0.4c0-1.6-0.6-10.5-4.1-11.5s-6.4,2.6-18.8-6.9
			c-26.9-20.9-30.4-28.7-30.4-28.7s47.9-42.9,77-67.8c1.7-1.5-2.5-2.7,4.6-7.2c1.3-0.9-2.1-2.5-3.2-2.5
			c-4.4-0.1-85.3,70.9-85.3,70.9s-23.8-25-24.5-28.8c-0.6-3.8,0.9-6-0.2-7.3s-5.8-3.4-7.9-2.5s-7.9,8.9-7,12.3
			c0.9,3.5,6,8.1,9.9,12.6s20.1,21,20.1,21s-48.2,42.4-55.5,51.2s-1.4,7.3-3.4,12.5s-2.9,5.8-1.5,6.3s3,0.5,5.6-1.8
			c2.6-2.2,7.6-9.8,13.1-15.8C327.6,129.8,354.9,107.5,354.9,107.5z"/>
	</g>
</g>
</svg>
